<mxfile host="65bd71144e">
    <diagram id="Q5E0hTgiW0_uPz00Tndt" name="第 1 页">
        <mxGraphModel dx="1002" dy="568" grid="1" gridSize="10" guides="1" tooltips="1" connect="1" arrows="0" fold="1" page="1" pageScale="1" pageWidth="827" pageHeight="1169" background="#ffffff" math="0" shadow="0">
            <root>
                <mxCell id="0"/>
                <mxCell id="1" parent="0"/>
                <mxCell id="4" value="截取按钮1附近的图像" style="rounded=0;whiteSpace=wrap;html=1;fontColor=#000000;fillColor=#FFFFFF;strokeColor=#000000;" parent="1" vertex="1">
                    <mxGeometry x="260" y="120" width="120" height="60" as="geometry"/>
                </mxCell>
                <mxCell id="5" value="" style="edgeStyle=elbowEdgeStyle;elbow=horizontal;endArrow=classic;html=1;curved=0;rounded=0;endSize=8;startSize=8;fontColor=#FFFFFF;exitX=1;exitY=0.5;exitDx=0;exitDy=0;entryX=0;entryY=0.5;entryDx=0;entryDy=0;strokeColor=#000000;" parent="1" source="22" target="4" edge="1">
                    <mxGeometry width="50" height="50" relative="1" as="geometry">
                        <mxPoint x="200" y="150" as="sourcePoint"/>
                        <mxPoint x="220" y="210" as="targetPoint"/>
                    </mxGeometry>
                </mxCell>
                <mxCell id="6" value="与退课图像匹配" style="rhombus;whiteSpace=wrap;html=1;fontColor=#000000;rounded=0;fillColor=#FFFFFF;strokeColor=#000000;" parent="1" vertex="1">
                    <mxGeometry x="400" y="190" width="80" height="80" as="geometry"/>
                </mxCell>
                <mxCell id="8" value="" style="edgeStyle=elbowEdgeStyle;elbow=horizontal;endArrow=classic;html=1;curved=0;rounded=0;endSize=8;startSize=8;fontColor=#FFFFFF;exitX=1;exitY=0.5;exitDx=0;exitDy=0;entryX=0.5;entryY=0;entryDx=0;entryDy=0;strokeColor=#000000;" parent="1" source="4" target="6" edge="1">
                    <mxGeometry width="50" height="50" relative="1" as="geometry">
                        <mxPoint x="210" y="160" as="sourcePoint"/>
                        <mxPoint x="270" y="160" as="targetPoint"/>
                        <Array as="points">
                            <mxPoint x="440" y="170"/>
                        </Array>
                    </mxGeometry>
                </mxCell>
                <mxCell id="9" value="" style="edgeStyle=elbowEdgeStyle;elbow=horizontal;endArrow=classic;html=1;curved=0;rounded=0;endSize=8;startSize=8;fontColor=#FFFFFF;exitX=0;exitY=0.5;exitDx=0;exitDy=0;entryX=0.5;entryY=0;entryDx=0;entryDy=0;strokeColor=#000000;" parent="1" source="6" target="10" edge="1">
                    <mxGeometry width="50" height="50" relative="1" as="geometry">
                        <mxPoint x="300" y="300" as="sourcePoint"/>
                        <mxPoint x="350" y="250" as="targetPoint"/>
                        <Array as="points">
                            <mxPoint x="360" y="260"/>
                            <mxPoint x="380" y="260"/>
                            <mxPoint x="354" y="250"/>
                        </Array>
                    </mxGeometry>
                </mxCell>
                <mxCell id="11" value="数量=0" style="edgeLabel;html=1;align=center;verticalAlign=middle;resizable=0;points=[];fontColor=#000000;labelBackgroundColor=none;labelBorderColor=none;" parent="9" vertex="1" connectable="0">
                    <mxGeometry x="-0.2582" y="1" relative="1" as="geometry">
                        <mxPoint x="13" y="-11" as="offset"/>
                    </mxGeometry>
                </mxCell>
                <mxCell id="10" value="点击按钮1" style="rounded=0;whiteSpace=wrap;html=1;fontColor=#000000;fillColor=#FFFFFF;strokeColor=#000000;" parent="1" vertex="1">
                    <mxGeometry x="300" y="280" width="120" height="60" as="geometry"/>
                </mxCell>
                <mxCell id="12" value="终止程序" style="rounded=0;whiteSpace=wrap;html=1;fontColor=#000000;fillColor=#FFFFFF;strokeColor=#000000;" parent="1" vertex="1">
                    <mxGeometry x="460" y="280" width="120" height="60" as="geometry"/>
                </mxCell>
                <mxCell id="13" value="" style="edgeStyle=elbowEdgeStyle;elbow=horizontal;endArrow=classic;html=1;curved=0;rounded=0;endSize=8;startSize=8;fontColor=#FFFFFF;exitX=1;exitY=0.5;exitDx=0;exitDy=0;entryX=0.5;entryY=0;entryDx=0;entryDy=0;strokeColor=#000000;" parent="1" source="6" target="12" edge="1">
                    <mxGeometry width="50" height="50" relative="1" as="geometry">
                        <mxPoint x="410" y="240" as="sourcePoint"/>
                        <mxPoint x="370" y="290" as="targetPoint"/>
                        <Array as="points">
                            <mxPoint x="520" y="260"/>
                            <mxPoint x="370" y="270"/>
                            <mxPoint x="390" y="270"/>
                            <mxPoint x="364" y="260"/>
                        </Array>
                    </mxGeometry>
                </mxCell>
                <mxCell id="14" value="数量&amp;gt;0" style="edgeLabel;html=1;align=center;verticalAlign=middle;resizable=0;points=[];fontColor=#000000;labelBackgroundColor=none;labelBorderColor=none;" parent="13" vertex="1" connectable="0">
                    <mxGeometry x="-0.2582" y="1" relative="1" as="geometry">
                        <mxPoint x="-13" y="-9" as="offset"/>
                    </mxGeometry>
                </mxCell>
                <mxCell id="16" value="" style="edgeStyle=elbowEdgeStyle;elbow=horizontal;endArrow=classic;html=1;curved=0;rounded=0;endSize=8;startSize=8;fontColor=#FFFFFF;exitX=0.5;exitY=1;exitDx=0;exitDy=0;entryX=0.504;entryY=-0.055;entryDx=0;entryDy=0;entryPerimeter=0;strokeColor=#000000;" parent="1" source="10" target="17" edge="1">
                    <mxGeometry width="50" height="50" relative="1" as="geometry">
                        <mxPoint x="390" y="160" as="sourcePoint"/>
                        <mxPoint x="360" y="370" as="targetPoint"/>
                        <Array as="points">
                            <mxPoint x="360" y="350"/>
                        </Array>
                    </mxGeometry>
                </mxCell>
                <mxCell id="17" value="点击按钮2" style="rounded=0;whiteSpace=wrap;html=1;fontColor=#000000;fillColor=#FFFFFF;strokeColor=#000000;" parent="1" vertex="1">
                    <mxGeometry x="300" y="400" width="120" height="60" as="geometry"/>
                </mxCell>
                <mxCell id="19" value="" style="edgeStyle=elbowEdgeStyle;elbow=horizontal;endArrow=classic;html=1;curved=0;rounded=0;endSize=8;startSize=8;fontColor=#FFFFFF;exitX=0;exitY=0.5;exitDx=0;exitDy=0;entryX=0;entryY=0.5;entryDx=0;entryDy=0;strokeColor=#000000;" parent="1" source="17" target="4" edge="1">
                    <mxGeometry width="50" height="50" relative="1" as="geometry">
                        <mxPoint x="260" y="410" as="sourcePoint"/>
                        <mxPoint x="230" y="210" as="targetPoint"/>
                        <Array as="points">
                            <mxPoint x="230" y="270"/>
                            <mxPoint x="220" y="260"/>
                            <mxPoint x="190" y="350"/>
                        </Array>
                    </mxGeometry>
                </mxCell>
                <mxCell id="22" value="等待到达抢课时间" style="rounded=0;whiteSpace=wrap;html=1;fontColor=#000000;fillColor=#FFFFFF;strokeColor=#000000;" parent="1" vertex="1">
                    <mxGeometry x="80" y="120" width="120" height="60" as="geometry"/>
                </mxCell>
                <mxCell id="23" value="设置点击位置" style="rounded=0;whiteSpace=wrap;html=1;fontColor=#000000;fillColor=#FFFFFF;labelBackgroundColor=none;labelBorderColor=none;strokeColor=#000000;" parent="1" vertex="1">
                    <mxGeometry x="80" y="40" width="120" height="60" as="geometry"/>
                </mxCell>
            </root>
        </mxGraphModel>
    </diagram>
</mxfile>